<svg xmlns="http://www.w3.org/2000/svg" viewBox="0 0 22 22" shape-rendering="crispEdges">
  <rect width="22" height="22" fill="#008080"/>
  <rect x="10" y="1" width="2" height="1" fill="#ff3355"/>
  <rect x="10" y="2" width="2" height="2" fill="#ffcc00"/>
  <rect x="6" y="4" width="10" height="8" fill="#c0c0c0"/>
  <rect x="6" y="4" width="10" height="1" fill="#ffffff"/>
  <rect x="6" y="11" width="10" height="1" fill="#666"/>
  <rect x="8" y="6" width="2" height="2" fill="#00ffaa"/>
  <rect x="12" y="6" width="2" height="2" fill="#00ffaa"/>
  <rect x="8" y="6" width="1" height="1" fill="#ffffff"/>
  <rect x="12" y="6" width="1" height="1" fill="#ffffff"/>
  <rect x="8" y="9" width="6" height="1" fill="#000"/>
  <rect x="9" y="9" width="1" height="1" fill="#ff3355"/>
  <rect x="11" y="9" width="1" height="1" fill="#ff3355"/>
  <rect x="13" y="9" width="1" height="1" fill="#ff3355"/>
  <rect x="9" y="12" width="4" height="1" fill="#888"/>
  <rect x="5" y="13" width="12" height="7" fill="#a0a0b0"/>
  <rect x="5" y="13" width="12" height="1" fill="#ffffff"/>
  <rect x="5" y="19" width="12" height="1" fill="#555"/>
  <rect x="9" y="15" width="4" height="3" fill="#000"/>
  <rect x="10" y="16" width="1" height="1" fill="#ffcc00"/>
  <rect x="11" y="16" width="1" height="1" fill="#00ffaa"/>
  <rect x="4" y="14" width="1" height="4" fill="#666"/>
  <rect x="17" y="14" width="1" height="4" fill="#666"/>
</svg>
